<?xml version="1.0" standalone="no"?>
<!DOCTYPE svg PUBLIC "-//W3C//DTD SVG 20010904//EN"
 "http://www.w3.org/TR/2001/REC-SVG-20010904/DTD/svg10.dtd">
<svg version="1.0" xmlns="http://www.w3.org/2000/svg"
 width="260.000000pt" height="260.000000pt" viewBox="0 0 260.000000 260.000000"
 preserveAspectRatio="xMidYMid meet">
<metadata>
Created by potrace 1.11, written by Peter Selinger 2001-2013
</metadata>
<g transform="translate(0.000000,260.000000) scale(0.100000,-0.100000)"
fill="#000000" stroke="none">
<path d="M1336 2454 c-3 -9 -6 -34 -7 -57 0 -45 -23 -194 -30 -201 -2 -2 -16
-7 -30 -11 -23 -6 -29 -1 -52 38 -41 69 -175 185 -191 165 -2 -1 3 -41 10 -88
7 -47 13 -104 13 -127 1 -41 0 -42 -47 -57 -96 -32 -162 -105 -162 -180 0 -36
-8 -48 -117 -160 -65 -67 -149 -162 -188 -212 -38 -50 -87 -102 -108 -117 -21
-15 -51 -49 -68 -75 -38 -58 -35 -96 14 -203 52 -114 119 -169 207 -169 51 0
92 20 150 75 25 23 71 52 102 65 32 12 77 35 101 50 27 17 66 30 98 35 130 16
202 47 283 124 l48 46 -4 -77 c-8 -130 -29 -161 -272 -403 -228 -227 -278
-295 -311 -420 -19 -76 -19 -207 1 -296 l16 -69 708 0 c390 0 711 3 714 8 2 4
15 84 27 177 32 240 32 528 1 671 -47 218 -153 473 -270 651 -33 50 -109 146
-169 213 -195 219 -211 240 -233 305 -26 77 -79 167 -148 250 -54 66 -75 78
-86 49z m-117 -503 l74 -6 -50 -46 c-55 -51 -127 -83 -215 -93 -50 -6 -58 -5
-67 13 -19 34 -13 86 12 108 12 11 29 23 37 26 19 7 114 6 209 -2z m582 -245
c168 -220 294 -533 328 -811 20 -161 12 -353 -20 -537 l-12 -68 -124 0 c-67 0
-123 2 -123 5 0 2 11 48 25 102 46 183 58 298 52 523 -8 290 -45 437 -180 709
-68 137 -70 144 -52 157 11 8 24 13 30 11 5 -2 40 -43 76 -91z m-1135 -343 c5
-20 2 -30 -12 -41 -10 -7 -43 -31 -73 -53 -76 -56 -98 -59 -133 -20 -15 17
-28 42 -28 56 0 14 0 28 -1 33 0 6 182 48 223 51 11 1 20 -9 24 -26z"/>
</g>
</svg>
